<?xml version="1.0" standalone="no"?>
<!DOCTYPE svg PUBLIC "-//W3C//DTD SVG 20010904//EN"
 "http://www.w3.org/TR/2001/REC-SVG-20010904/DTD/svg10.dtd">
<svg version="1.0" xmlns="http://www.w3.org/2000/svg"
 width="92.000000pt" height="92.000000pt" viewBox="0 0 92.000000 92.000000"
 preserveAspectRatio="xMidYMid meet">

<g transform="translate(0.000000,92.000000) scale(0.100000,-0.100000)"
fill="#000000" stroke="none">
<path d="M389 866 c-111 -39 -171 -147 -156 -276 6 -47 13 -64 57 -137 19 -31
19 -31 -3 -37 -42 -10 -104 -74 -142 -147 -36 -68 -37 -73 -20 -86 10 -7 91
-49 179 -94 l161 -81 165 87 c91 47 169 90 175 96 25 25 -93 193 -156 219 -34
15 -32 36 7 83 40 48 51 168 22 237 -48 115 -178 176 -289 136z m157 -46 c77
-38 123 -140 105 -234 -17 -93 -55 -116 -191 -116 -113 0 -148 13 -171 63 -23
51 -25 134 -4 185 44 104 161 150 261 102z m-73 -367 c-7 -2 -19 -2 -25 0 -7
3 -2 5 12 5 14 0 19 -2 13 -5z m7 -23 c0 -5 -9 -10 -20 -10 -11 0 -20 5 -20
10 0 6 9 10 20 10 11 0 20 -4 20 -10z m-143 -95 c-21 -8 -51 -23 -66 -35 -35
-24 -48 -26 -30 -3 24 28 73 53 104 52 30 0 30 0 -8 -14z m123 -130 c0 -83 -4
-135 -10 -135 -6 0 -10 52 -10 135 0 83 4 135 10 135 6 0 10 -52 10 -135z
m-42 53 c-3 -28 -8 -33 -41 -40 -21 -4 -51 -14 -66 -23 -28 -14 -29 -14 -41
16 -8 19 -9 34 -3 40 8 8 111 35 146 38 5 1 7 -13 5 -31z m195 -1 c41 -17 48
-24 43 -41 -3 -12 -6 -24 -6 -28 0 -4 -17 1 -37 12 -21 10 -55 22 -75 25 -34
6 -38 11 -38 36 0 27 2 28 33 22 17 -3 54 -15 80 -26z m-388 -67 l15 -30 -35
17 c-27 13 -32 19 -24 30 17 20 27 16 44 -17z m499 1 c3 -4 -5 -13 -18 -19
-21 -9 -23 -8 -19 9 5 19 28 26 37 10z"/>
<path d="M410 771 c-70 -15 -109 -41 -120 -80 -12 -45 -12 -57 1 -104 12 -45
65 -76 144 -84 62 -7 153 17 180 47 22 25 31 113 16 153 -19 49 -138 86 -221
68z m-52 -133 c0 -69 -1 -71 -13 -43 -12 27 -12 47 2 98 8 30 10 19 11 -55z"/>
</g>
</svg>
